{"accessors" : [{"bufferView" : 0, "byteOffset" : 0, "componentType" : 5123, "count" : 24312, "type" : "SCALAR", "max" : [20710], "min" : [0]}, {"bufferView" : 1, "byteOffset" : 0, "componentType" : 5126, "count" : 20711, "type" : "VEC3", "max" : [1.0179290771484375, 1.5559719800949097, 0.6192842125892639], "min" : [-0.6585058569908142, -0.9642294049263, -2.82034969329834], "name" : "POSITION"}, {"bufferView" : 1, "byteOffset" : 12, "componentType" : 5126, "count" : 20711, "type" : "VEC3", "max" : [0.9999788999557495, 0.9989863634109497, 0.9998672008514404], "min" : [-0.9995665550231934, -0.9998888969421387, -0.9999719858169556], "name" : "NORMAL"}, {"bufferView" : 1, "byteOffset" : 24, "componentType" : 5126, "count" : 20711, "type" : "VEC2", "max" : [0.9916139841079712, 2], "min" : [0, 1.0081130266189575], "name" : "TEXCOORD_0"}, {"bufferView" : 0, "byteOffset" : 48624, "componentType" : 5123, "count" : 10164, "type" : "SCALAR", "max" : [8772], "min" : [0]}, {"bufferView" : 2, "byteOffset" : 0, "componentType" : 5126, "count" : 8773, "type" : "VEC3", "max" : [1.0274322032928467, 1.5559719800949097, 0.6114541888237], "min" : [-0.6451866030693054, -0.9642294049263, -0.5462357997894287], "name" : "POSITION"}, {"bufferView" : 2, "byteOffset" : 12, "componentType" : 5126, "count" : 8773, "type" : "VEC3", "max" : [0.9984614849090576, 0.9952436089515686, 0.9952886700630188], "min" : [-0.9995667934417725, -0.9998888969421387, -0.9999900460243225], "name" : "NORMAL"}, {"bufferView" : 2, "byteOffset" : 24, "componentType" : 5126, "count" : 8773, "type" : "VEC2", "max" : [0.9911569952964783, 2], "min" : [0, 1.008331060409546], "name" : "TEXCOORD_0"}, {"bufferView" : 0, "byteOffset" : 68952, "componentType" : 5123, "count" : 3549, "type" : "SCALAR", "max" : [3134], "min" : [0]}, {"bufferView" : 3, "byteOffset" : 0, "componentType" : 5126, "count" : 3135, "type" : "VEC3", "max" : [1.0258171558380127, 1.5502269268035889, 0.6053622364997864], "min" : [-0.6488578915596008, -0.9605290293693542, -0.5388647317886353], "name" : "POSITION"}, {"bufferView" : 3, "byteOffset" : 12, "componentType" : 5126, "count" : 3135, "type" : "VEC3", "max" : [0.9984056949615479, 0.998812735080719, 0.9994350075721741], "min" : [-0.9984196424484253, -0.9989251494407654, -0.9964267015457153], "name" : "NORMAL"}, {"bufferView" : 3, "byteOffset" : 24, "componentType" : 5126, "count" : 3135, "type" : "VEC2", "max" : [0.9899770021438599, 2], "min" : [0, 1.0088179111480713], "name" : "TEXCOORD_0"}, {"bufferView" : 0, "byteOffset" : 76052, "componentType" : 5123, "count" : 1725, "type" : "SCALAR", "max" : [1569], "min" : [0]}, {"bufferView" : 4, "byteOffset" : 0, "componentType" : 5126, "count" : 1570, "type" : "VEC3", "max" : [1.0258171558380127, 1.5264040231704712, 0.5984472632408142], "min" : [-0.5952978730201721, -0.9519042372703552, -0.5471257567405701], "name" : "POSITION"}, {"bufferView" : 4, "byteOffset" : 12, "componentType" : 5126, "count" : 1570, "type" : "VEC3", "max" : [0.9874798655509949, 0.9988114833831787, 0.9975590109825134], "min" : [-0.9994548559188843, -0.9962666034698486, -0.9998011589050293], "name" : "NORMAL"}, {"bufferView" : 4, "byteOffset" : 24, "componentType" : 5126, "count" : 1570, "type" : "VEC2", "max" : [0.9890199899673462, 2], "min" : [0, 1.008876085281372], "name" : "TEXCOORD_0"}], "asset" : {"generator" : "Aspose.3D 24.1.0", "version" : "2.0"}, "buffers" : [{"uri" : "data:application/octet-stream;base64,", "byteLength" : 1351524}], "bufferViews" : [{"buffer" : 0, "byteOffset" : 0, "byteLength" : 79504, "target" : 34963}, {"buffer" : 0, "byteOffset" : 79508, "byteLength" : 777984, "byteStride" : 32, "target" : 34962}, {"buffer" : 0, "byteOffset" : 857496, "byteLength" : 325248, "byteStride" : 32, "target" : 34962}, {"buffer" : 0, "byteOffset" : 1182748, "byteLength" : 113568, "byteStride" : 32, "target" : 34962}, {"buffer" : 0, "byteOffset" : 1296320, "byteLength" : 55200, "byteStride" : 32, "target" : 34962}], "images" : [{"uri" : "data:image/jpeg;base64,"}, {"uri" : "data:image/jpeg;base64,"}, {"uri" : "data:image/jpeg;base64,"}, {"uri" : "data:image/jpeg;base64,"}], "materials" : [{"name" : "Material_0", "pbrMetallicRoughness" : {"baseColorFactor" : [1, 1, 1, 1], "baseColorTexture" : {"index" : 0, "texCoord" : 0}, "metallicFactor" : 0, "roughnessFactor" : 1}, "emissiveFactor" : [0, 0, 0], "alphaMode" : "OPAQUE", "doubleSided" : false}, {"name" : "Material_1", "pbrMetallicRoughness" : {"baseColorFactor" : [1, 1, 1, 1], "baseColorTexture" : {"index" : 1, "texCoord" : 0}, "metallicFactor" : 0, "roughnessFactor" : 1}, "emissiveFactor" : [0, 0, 0], "alphaMode" : "OPAQUE", "doubleSided" : false}, {"name" : "Material_2", "pbrMetallicRoughness" : {"baseColorFactor" : [1, 1, 1, 1], "baseColorTexture" : {"index" : 2, "texCoord" : 0}, "metallicFactor" : 0, "roughnessFactor" : 1}, "emissiveFactor" : [0, 0, 0], "alphaMode" : "OPAQUE", "doubleSided" : false}, {"name" : "Material_3", "pbrMetallicRoughness" : {"baseColorFactor" : [1, 1, 1, 1], "baseColorTexture" : {"index" : 3, "texCoord" : 0}, "metallicFactor" : 0, "roughnessFactor" : 1}, "emissiveFactor" : [0, 0, 0], "alphaMode" : "OPAQUE", "doubleSided" : false}], "meshes" : [{"primitives" : [{"attributes" : {"POSITION" : 1, "NORMAL" : 2, "TEXCOORD_0" : 3}, "indices" : 0, "material" : 0, "mode" : 4}, {"attributes" : {"POSITION" : 5, "NORMAL" : 6, "TEXCOORD_0" : 7}, "indices" : 4, "material" : 1, "mode" : 4}, {"attributes" : {"POSITION" : 9, "NORMAL" : 10, "TEXCOORD_0" : 11}, "indices" : 8, "material" : 2, "mode" : 4}, {"attributes" : {"POSITION" : 13, "NORMAL" : 14, "TEXCOORD_0" : 15}, "indices" : 12, "material" : 3, "mode" : 4}]}], "nodes" : [{"matrix" : [1, 0, 0, 0, 0, 1, 0, 0, 0, 0, 1, 0, -0.37889713048934937, 1.4280481338500977, 0.8256067633628845, 1], "mesh" : 0, "name" : "Mesh_0"}], "samplers" : [{"magFilter" : 9729, "minFilter" : 9987, "wrapS" : 10497, "wrapT" : 10497}, {"magFilter" : 9729, "minFilter" : 9987, "wrapS" : 10497, "wrapT" : 10497}, {"magFilter" : 9729, "minFilter" : 9987, "wrapS" : 10497, "wrapT" : 10497}, {"magFilter" : 9729, "minFilter" : 9987, "wrapS" : 10497, "wrapT" : 10497}], "scene" : 0, "scenes" : [{"nodes" : [0]}], "textures" : [{"sampler" : 0, "source" : 0, "name" : ""}, {"sampler" : 1, "source" : 1, "name" : ""}, {"sampler" : 2, "source" : 2, "name" : ""}, {"sampler" : 3, "source" : 3, "name" : ""}]}