{"accessors" : [{"bufferView" : 0, "byteOffset" : 0, "componentType" : 5123, "count" : 57552, "type" : "SCALAR", "max" : [49763], "min" : [0]}, {"bufferView" : 1, "byteOffset" : 0, "componentType" : 5126, "count" : 49764, "type" : "VEC3", "max" : [1.2992140054702759, 0.8458700180053711, -1.0743039846420288], "min" : [-1.005787968635559, -0.6596519947052002, -4.55003023147583], "name" : "POSITION"}, {"bufferView" : 1, "byteOffset" : 12, "componentType" : 5126, "count" : 49764, "type" : "VEC2", "max" : [0.9980146884918213, 1.9980146884918213], "min" : [0.001985271694138646, 1.0021030902862549], "name" : "TEXCOORD_0"}, {"bufferView" : 1, "byteOffset" : 20, "componentType" : 5126, "count" : 49764, "type" : "VEC3", "max" : [1.000002145767212, 0.9999544620513916, 0.9999916553497314], "min" : [-0.9999756813049316, -0.9998695850372314, -0.999813973903656], "name" : "NORMAL"}], "asset" : {"generator" : "Aspose.3D 24.1.0", "version" : "2.0"}, "buffers" : [{"uri" : "data:application/octet-stream;base64,", "byteLength" : 1956776}], "bufferViews" : [{"buffer" : 0, "byteOffset" : 0, "byteLength" : 115104, "target" : 34963}, {"buffer" : 0, "byteOffset" : 115108, "byteLength" : 1841664, "byteStride" : 32, "target" : 34962}], "materials" : [{"name" : "Material_0", "pbrMetallicRoughness" : {"baseColorFactor" : [0.800000011920929, 0.800000011920929, 0.800000011920929, 1], "metallicFactor" : 0, "roughnessFactor" : 0.5}, "emissiveFactor" : [0, 0, 0], "alphaMode" : "OPAQUE", "doubleSided" : true}], "meshes" : [{"primitives" : [{"attributes" : {"POSITION" : 1, "TEXCOORD_0" : 2, "NORMAL" : 3}, "indices" : 0, "material" : 0, "mode" : 4}]}], "nodes" : [{"matrix" : [1, 0, 0, 0, 0, -1.3435885648505064E-07, 1.0000001343588565, 0, 0, -1.0000001343588565, -1.3435885648505064E-07, 0, 0, 0, 0, 1], "mesh" : 0, "name" : "Mesh_0"}], "scene" : 0, "scenes" : [{"nodes" : [0]}]}