{"accessors" : [{"bufferView" : 0, "byteOffset" : 0, "componentType" : 5123, "count" : 9252, "type" : "SCALAR", "max" : [7904], "min" : [0]}, {"bufferView" : 1, "byteOffset" : 0, "componentType" : 5126, "count" : 7905, "type" : "VEC3", "max" : [1.2215399742126465, 2.8164029121398926, 1.2761590480804443], "min" : [-2.104562759399414, -2.427852153778076, -1.193490743637085], "name" : "POSITION"}, {"bufferView" : 1, "byteOffset" : 12, "componentType" : 5126, "count" : 7905, "type" : "VEC3", "max" : [0.9998770952224731, 0.9944556951522827, 0.9998664855957031], "min" : [-0.9999856352806091, -0.991902768611908, -0.9999167919158936], "name" : "NORMAL"}, {"bufferView" : 1, "byteOffset" : 24, "componentType" : 5126, "count" : 7905, "type" : "VEC2", "max" : [0.9912999868392944, 2], "min" : [0, 1.008080005645752], "name" : "TEXCOORD_0"}, {"bufferView" : 0, "byteOffset" : 18504, "componentType" : 5123, "count" : 10011, "type" : "SCALAR", "max" : [8704], "min" : [0]}, {"bufferView" : 2, "byteOffset" : 0, "componentType" : 5126, "count" : 8705, "type" : "VEC3", "max" : [1.3116459846496582, 2.8183159828186035, 1.2637239694595337], "min" : [-2.0386335849761963, -2.4621057510375977, -1.2078789472579956], "name" : "POSITION"}, {"bufferView" : 2, "byteOffset" : 12, "componentType" : 5126, "count" : 8705, "type" : "VEC3", "max" : [0.9998770952224731, 0.9992144107818604, 0.9998664855957031], "min" : [-0.9999856352806091, -0.9782426357269287, -0.998969554901123], "name" : "NORMAL"}, {"bufferView" : 2, "byteOffset" : 24, "componentType" : 5126, "count" : 8705, "type" : "VEC2", "max" : [0.9911890029907227, 2], "min" : [0, 1.0081560611724854], "name" : "TEXCOORD_0"}, {"bufferView" : 0, "byteOffset" : 38528, "componentType" : 5123, "count" : 7908, "type" : "SCALAR", "max" : [7054], "min" : [0]}, {"bufferView" : 3, "byteOffset" : 0, "componentType" : 5126, "count" : 7055, "type" : "VEC3", "max" : [1.3048100471496582, 2.8183159828186035, 1.2579820156097412], "min" : [-2.104562759399414, -2.4621057510375977, -1.217771053314209], "name" : "POSITION"}, {"bufferView" : 3, "byteOffset" : 12, "componentType" : 5126, "count" : 7055, "type" : "VEC3", "max" : [0.9997982382774353, 0.9992144107818604, 0.9987857341766357], "min" : [-0.9992998838424683, -0.994352400302887, -0.9999420642852783], "name" : "NORMAL"}, {"bufferView" : 3, "byteOffset" : 24, "componentType" : 5126, "count" : 7055, "type" : "VEC2", "max" : [0.9916260242462158, 2], "min" : [0, 1.0080740451812744], "name" : "TEXCOORD_0"}, {"bufferView" : 0, "byteOffset" : 54344, "componentType" : 5123, "count" : 624, "type" : "SCALAR", "max" : [590], "min" : [0]}, {"bufferView" : 4, "byteOffset" : 0, "componentType" : 5126, "count" : 591, "type" : "VEC3", "max" : [1.3116459846496582, 2.4934298992156982, 1.256060004234314], "min" : [-1.784479022026062, -2.3652186393737793, -1.1798537969589233], "name" : "POSITION"}, {"bufferView" : 4, "byteOffset" : 12, "componentType" : 5126, "count" : 591, "type" : "VEC3", "max" : [0.9989560842514038, 0.9984400272369385, 0.9996576905250549], "min" : [-0.9984597563743591, -0.9187484383583069, -0.9997227191925049], "name" : "NORMAL"}, {"bufferView" : 4, "byteOffset" : 24, "componentType" : 5126, "count" : 591, "type" : "VEC2", "max" : [0.9897400140762329, 2], "min" : [0, 1.0090839862823486], "name" : "TEXCOORD_0"}], "asset" : {"generator" : "Aspose.3D 24.1.0", "version" : "2.0"}, "buffers" : [{"uri" : "data:application/octet-stream;base64,", "byteLength" : 945052}], "bufferViews" : [{"buffer" : 0, "byteOffset" : 0, "byteLength" : 55592, "target" : 34963}, {"buffer" : 0, "byteOffset" : 55596, "byteLength" : 296064, "byteStride" : 32, "target" : 34962}, {"buffer" : 0, "byteOffset" : 351664, "byteLength" : 320352, "byteStride" : 32, "target" : 34962}, {"buffer" : 0, "byteOffset" : 672020, "byteLength" : 253056, "byteStride" : 32, "target" : 34962}, {"buffer" : 0, "byteOffset" : 925080, "byteLength" : 19968, "byteStride" : 32, "target" : 34962}], "images" : [{"uri" : "data:image/jpeg;base64,"}, {"uri" : "data:image/jpeg;base64,"}, {"uri" : "data:image/jpeg;base64,"}, {"uri" : "data:image/jpeg;base64,"}], "materials" : [{"name" : "Material_4", "pbrMetallicRoughness" : {"baseColorFactor" : [1, 1, 1, 1], "baseColorTexture" : {"index" : 0, "texCoord" : 0}, "metallicFactor" : 0, "roughnessFactor" : 1}, "emissiveFactor" : [0, 0, 0], "alphaMode" : "OPAQUE", "doubleSided" : false}, {"name" : "Material_1", "pbrMetallicRoughness" : {"baseColorFactor" : [1, 1, 1, 1], "baseColorTexture" : {"index" : 1, "texCoord" : 0}, "metallicFactor" : 0, "roughnessFactor" : 1}, "emissiveFactor" : [0, 0, 0], "alphaMode" : "OPAQUE", "doubleSided" : false}, {"name" : "Material_2", "pbrMetallicRoughness" : {"baseColorFactor" : [1, 1, 1, 1], "baseColorTexture" : {"index" : 2, "texCoord" : 0}, "metallicFactor" : 0, "roughnessFactor" : 1}, "emissiveFactor" : [0, 0, 0], "alphaMode" : "OPAQUE", "doubleSided" : false}, {"name" : "Material_3", "pbrMetallicRoughness" : {"baseColorFactor" : [1, 1, 1, 1], "baseColorTexture" : {"index" : 3, "texCoord" : 0}, "metallicFactor" : 0, "roughnessFactor" : 1}, "emissiveFactor" : [0, 0, 0], "alphaMode" : "OPAQUE", "doubleSided" : false}], "meshes" : [{"primitives" : [{"attributes" : {"POSITION" : 1, "NORMAL" : 2, "TEXCOORD_0" : 3}, "indices" : 0, "material" : 0, "mode" : 4}, {"attributes" : {"POSITION" : 5, "NORMAL" : 6, "TEXCOORD_0" : 7}, "indices" : 4, "material" : 1, "mode" : 4}, {"attributes" : {"POSITION" : 9, "NORMAL" : 10, "TEXCOORD_0" : 11}, "indices" : 8, "material" : 2, "mode" : 4}, {"attributes" : {"POSITION" : 13, "NORMAL" : 14, "TEXCOORD_0" : 15}, "indices" : 12, "material" : 3, "mode" : 4}]}], "nodes" : [{"matrix" : [1, 0, 0, 0, 0, 1, 0, 0, 0, 0, 1, 0, 0, 3.301257371902466, 0, 1], "mesh" : 0, "name" : "Mesh_0"}], "samplers" : [{"magFilter" : 9729, "minFilter" : 9987, "wrapS" : 10497, "wrapT" : 10497}, {"magFilter" : 9729, "minFilter" : 9987, "wrapS" : 10497, "wrapT" : 10497}, {"magFilter" : 9729, "minFilter" : 9987, "wrapS" : 10497, "wrapT" : 10497}, {"magFilter" : 9729, "minFilter" : 9987, "wrapS" : 10497, "wrapT" : 10497}], "scene" : 0, "scenes" : [{"nodes" : [0]}], "textures" : [{"sampler" : 0, "source" : 0, "name" : ""}, {"sampler" : 1, "source" : 1, "name" : ""}, {"sampler" : 2, "source" : 2, "name" : ""}, {"sampler" : 3, "source" : 3, "name" : ""}]}