{"accessors" : [{"bufferView" : 0, "byteOffset" : 0, "componentType" : 5123, "count" : 1518, "type" : "SCALAR", "max" : [1314], "min" : [0]}, {"bufferView" : 1, "byteOffset" : 0, "componentType" : 5126, "count" : 1315, "type" : "VEC3", "max" : [1.462689995765686, 1.3641849756240845, 1.567497968673706], "min" : [-2.739556312561035, -0.23288950324058533, -0.6889715790748596], "name" : "POSITION"}, {"bufferView" : 1, "byteOffset" : 12, "componentType" : 5126, "count" : 1315, "type" : "VEC3", "max" : [0.9794204235076904, 0.991468071937561, 0.9861904382705688], "min" : [-0.9823222756385803, -0.9999809861183167, -0.9925188422203064], "name" : "NORMAL"}, {"bufferView" : 1, "byteOffset" : 24, "componentType" : 5126, "count" : 1315, "type" : "VEC2", "max" : [0.9915249943733215, 2], "min" : [0, 1.0094187259674072], "name" : "TEXCOORD_0"}, {"bufferView" : 0, "byteOffset" : 3036, "componentType" : 5123, "count" : 1422, "type" : "SCALAR", "max" : [1233], "min" : [0]}, {"bufferView" : 2, "byteOffset" : 0, "componentType" : 5126, "count" : 1234, "type" : "VEC3", "max" : [1.4813640117645264, 1.2006679773330688, 1.5495637655258179], "min" : [-2.68700909614563, -0.2170478254556656, -0.6176360249519348], "name" : "POSITION"}, {"bufferView" : 2, "byteOffset" : 12, "componentType" : 5126, "count" : 1234, "type" : "VEC3", "max" : [0.9968099594116211, 0.9976998567581177, 0.9938344955444336], "min" : [-0.9956490397453308, -0.9911137819290161, -0.9380273818969727], "name" : "NORMAL"}, {"bufferView" : 2, "byteOffset" : 24, "componentType" : 5126, "count" : 1234, "type" : "VEC2", "max" : [0.9915770292282104, 2], "min" : [0, 1.0082149505615234], "name" : "TEXCOORD_0"}, {"bufferView" : 0, "byteOffset" : 5880, "componentType" : 5123, "count" : 3111, "type" : "SCALAR", "max" : [2708], "min" : [0]}, {"bufferView" : 3, "byteOffset" : 0, "componentType" : 5126, "count" : 2709, "type" : "VEC3", "max" : [1.4813640117645264, 1.3740190267562866, 1.567497968673706], "min" : [-2.678905963897705, -0.23288950324058533, -0.6694743633270264], "name" : "POSITION"}, {"bufferView" : 3, "byteOffset" : 12, "componentType" : 5126, "count" : 2709, "type" : "VEC3", "max" : [0.9947049021720886, 0.9983510971069336, 0.998577356338501], "min" : [-0.9986564517021179, -0.9957423806190491, -0.9859461188316345], "name" : "NORMAL"}, {"bufferView" : 3, "byteOffset" : 24, "componentType" : 5126, "count" : 2709, "type" : "VEC2", "max" : [0.9915670156478882, 2], "min" : [0, 1.0081850290298462], "name" : "TEXCOORD_0"}, {"bufferView" : 0, "byteOffset" : 12104, "componentType" : 5123, "count" : 3111, "type" : "SCALAR", "max" : [2744], "min" : [0]}, {"bufferView" : 4, "byteOffset" : 0, "componentType" : 5126, "count" : 2745, "type" : "VEC3", "max" : [1.4368150234222412, 1.3740190267562866, 1.491461992263794], "min" : [-2.739556312561035, -0.23288950324058533, -0.5785358548164368], "name" : "POSITION"}, {"bufferView" : 4, "byteOffset" : 12, "componentType" : 5126, "count" : 2745, "type" : "VEC3", "max" : [0.9958292245864868, 0.9987386465072632, 0.9985777735710144], "min" : [-0.9986557960510254, -0.9361705183982849, -0.9859489798545837], "name" : "NORMAL"}, {"bufferView" : 4, "byteOffset" : 24, "componentType" : 5126, "count" : 2745, "type" : "VEC2", "max" : [0.9915339946746826, 2], "min" : [0, 1.0081440210342407], "name" : "TEXCOORD_0"}], "asset" : {"generator" : "Aspose.3D 24.1.0", "version" : "2.0"}, "buffers" : [{"uri" : "data:application/octet-stream;base64,", "byteLength" : 311532}], "bufferViews" : [{"buffer" : 0, "byteOffset" : 0, "byteLength" : 18328, "target" : 34963}, {"buffer" : 0, "byteOffset" : 18332, "byteLength" : 48576, "byteStride" : 32, "target" : 34962}, {"buffer" : 0, "byteOffset" : 66912, "byteLength" : 45504, "byteStride" : 32, "target" : 34962}, {"buffer" : 0, "byteOffset" : 112420, "byteLength" : 99552, "byteStride" : 32, "target" : 34962}, {"buffer" : 0, "byteOffset" : 211976, "byteLength" : 99552, "byteStride" : 32, "target" : 34962}], "images" : [{"uri" : "data:image/jpeg;base64,"}, {"uri" : "data:image/jpeg;base64,"}, {"uri" : "data:image/jpeg;base64,"}, {"uri" : "data:image/jpeg;base64,"}], "materials" : [{"name" : "Material_0", "pbrMetallicRoughness" : {"baseColorFactor" : [1, 1, 1, 1], "baseColorTexture" : {"index" : 0, "texCoord" : 0}, "metallicFactor" : 0, "roughnessFactor" : 1}, "emissiveFactor" : [0, 0, 0], "alphaMode" : "OPAQUE", "doubleSided" : false}, {"name" : "Material_1", "pbrMetallicRoughness" : {"baseColorFactor" : [1, 1, 1, 1], "baseColorTexture" : {"index" : 1, "texCoord" : 0}, "metallicFactor" : 0, "roughnessFactor" : 1}, "emissiveFactor" : [0, 0, 0], "alphaMode" : "OPAQUE", "doubleSided" : false}, {"name" : "Material_2", "pbrMetallicRoughness" : {"baseColorFactor" : [1, 1, 1, 1], "baseColorTexture" : {"index" : 2, "texCoord" : 0}, "metallicFactor" : 0, "roughnessFactor" : 1}, "emissiveFactor" : [0, 0, 0], "alphaMode" : "OPAQUE", "doubleSided" : false}, {"name" : "Material_3", "pbrMetallicRoughness" : {"baseColorFactor" : [1, 1, 1, 1], "baseColorTexture" : {"index" : 3, "texCoord" : 0}, "metallicFactor" : 0, "roughnessFactor" : 1}, "emissiveFactor" : [0, 0, 0], "alphaMode" : "OPAQUE", "doubleSided" : false}], "meshes" : [{"primitives" : [{"attributes" : {"POSITION" : 1, "NORMAL" : 2, "TEXCOORD_0" : 3}, "indices" : 0, "material" : 0, "mode" : 4}, {"attributes" : {"POSITION" : 5, "NORMAL" : 6, "TEXCOORD_0" : 7}, "indices" : 4, "material" : 1, "mode" : 4}, {"attributes" : {"POSITION" : 9, "NORMAL" : 10, "TEXCOORD_0" : 11}, "indices" : 8, "material" : 2, "mode" : 4}, {"attributes" : {"POSITION" : 13, "NORMAL" : 14, "TEXCOORD_0" : 15}, "indices" : 12, "material" : 3, "mode" : 4}]}], "nodes" : [{"mesh" : 0, "name" : "Mesh_0"}], "samplers" : [{"magFilter" : 9729, "minFilter" : 9729, "wrapS" : 33071, "wrapT" : 33071}, {"magFilter" : 9729, "minFilter" : 9987, "wrapS" : 10497, "wrapT" : 10497}, {"magFilter" : 9729, "minFilter" : 9987, "wrapS" : 10497, "wrapT" : 10497}, {"magFilter" : 9729, "minFilter" : 9987, "wrapS" : 10497, "wrapT" : 10497}], "scene" : 0, "scenes" : [{"nodes" : [0]}], "textures" : [{"sampler" : 0, "source" : 0, "name" : ""}, {"sampler" : 1, "source" : 1, "name" : ""}, {"sampler" : 2, "source" : 2, "name" : ""}, {"sampler" : 3, "source" : 3, "name" : ""}]}