{"accessors" : [{"bufferView" : 0, "byteOffset" : 0, "componentType" : 5123, "count" : 12474, "type" : "SCALAR", "max" : [10513], "min" : [0]}, {"bufferView" : 1, "byteOffset" : 0, "componentType" : 5126, "count" : 10514, "type" : "VEC3", "max" : [1.185455560684204, 3.1474099159240723, 1.4011682271957397], "min" : [-1.3837863206863403, -4.007143974304199, -1.4810584783554077], "name" : "POSITION"}, {"bufferView" : 1, "byteOffset" : 12, "componentType" : 5126, "count" : 10514, "type" : "VEC3", "max" : [0.9998496770858765, 0.9980343580245972, 0.9999237060546875], "min" : [-0.999786376953125, -0.9998558759689331, -0.9998230338096619], "name" : "NORMAL"}, {"bufferView" : 1, "byteOffset" : 24, "componentType" : 5126, "count" : 10514, "type" : "VEC2", "max" : [0.9916989803314209, 2], "min" : [0, 1.0081650018692017], "name" : "TEXCOORD_0"}, {"bufferView" : 0, "byteOffset" : 24948, "componentType" : 5123, "count" : 8856, "type" : "SCALAR", "max" : [7545], "min" : [0]}, {"bufferView" : 2, "byteOffset" : 0, "componentType" : 5126, "count" : 7546, "type" : "VEC3", "max" : [1.0821127891540527, 3.1460304260253906, 1.4442384243011475], "min" : [-1.5665514469146729, -4.007143974304199, -1.2645288705825806], "name" : "POSITION"}, {"bufferView" : 2, "byteOffset" : 12, "componentType" : 5126, "count" : 7546, "type" : "VEC3", "max" : [0.9999442100524902, 1.0000044107437134, 0.9982863664627075], "min" : [-0.9996223449707031, -0.988179087638855, -0.9998229742050171], "name" : "NORMAL"}, {"bufferView" : 2, "byteOffset" : 24, "componentType" : 5126, "count" : 7546, "type" : "VEC2", "max" : [0.9912940263748169, 2], "min" : [0, 1.0080569982528687], "name" : "TEXCOORD_0"}, {"bufferView" : 0, "byteOffset" : 42660, "componentType" : 5123, "count" : 14778, "type" : "SCALAR", "max" : [12430], "min" : [0]}, {"bufferView" : 3, "byteOffset" : 0, "componentType" : 5126, "count" : 12431, "type" : "VEC3", "max" : [1.185455560684204, 3.1480915546417236, 1.481305718421936], "min" : [-1.8636596202850342, -4.094764709472656, -1.2915855646133423], "name" : "POSITION"}, {"bufferView" : 3, "byteOffset" : 12, "componentType" : 5126, "count" : 12431, "type" : "VEC3", "max" : [0.9999549984931946, 1.0000044107437134, 0.9993032217025757], "min" : [-0.9997863173484802, -0.9999608397483826, -0.9991128444671631], "name" : "NORMAL"}, {"bufferView" : 3, "byteOffset" : 24, "componentType" : 5126, "count" : 12431, "type" : "VEC2", "max" : [0.9916750192642212, 2], "min" : [0, 1.0081119537353516], "name" : "TEXCOORD_0"}, {"bufferView" : 0, "byteOffset" : 72216, "componentType" : 5123, "count" : 7950, "type" : "SCALAR", "max" : [6847], "min" : [0]}, {"bufferView" : 4, "byteOffset" : 0, "componentType" : 5126, "count" : 6848, "type" : "VEC3", "max" : [1.124042272567749, 2.3232033252716064, 1.4206054210662842], "min" : [-1.3419245481491089, -4.007216930389404, -1.4810584783554077], "name" : "POSITION"}, {"bufferView" : 4, "byteOffset" : 12, "componentType" : 5126, "count" : 6848, "type" : "VEC3", "max" : [1.000002145767212, 1.0000044107437134, 0.9999186992645264], "min" : [-0.9992231130599976, -0.9732080698013306, -0.9989925622940063], "name" : "NORMAL"}, {"bufferView" : 4, "byteOffset" : 24, "componentType" : 5126, "count" : 6848, "type" : "VEC2", "max" : [0.9913880228996277, 2], "min" : [0, 1.0080680847167969], "name" : "TEXCOORD_0"}], "asset" : {"generator" : "Aspose.3D 24.1.0", "version" : "2.0"}, "buffers" : [{"uri" : "data:application/octet-stream;base64,", "byteLength" : 1497992}], "bufferViews" : [{"buffer" : 0, "byteOffset" : 0, "byteLength" : 88116, "target" : 34963}, {"buffer" : 0, "byteOffset" : 88120, "byteLength" : 399168, "byteStride" : 32, "target" : 34962}, {"buffer" : 0, "byteOffset" : 487292, "byteLength" : 283392, "byteStride" : 32, "target" : 34962}, {"buffer" : 0, "byteOffset" : 770688, "byteLength" : 472896, "byteStride" : 32, "target" : 34962}, {"buffer" : 0, "byteOffset" : 1243588, "byteLength" : 254400, "byteStride" : 32, "target" : 34962}], "images" : [{"uri" : "data:image/jpeg;base64,"}, {"uri" : "data:image/jpeg;base64,"}, {"uri" : "data:image/jpeg;base64,"}, {"uri" : "data:image/jpeg;base64,"}], "materials" : [{"name" : "Material_0", "pbrMetallicRoughness" : {"baseColorFactor" : [1, 1, 1, 1], "baseColorTexture" : {"index" : 0, "texCoord" : 0}, "metallicFactor" : 0, "roughnessFactor" : 1}, "emissiveFactor" : [0, 0, 0], "alphaMode" : "OPAQUE", "doubleSided" : false}, {"name" : "Material_1", "pbrMetallicRoughness" : {"baseColorFactor" : [1, 1, 1, 1], "baseColorTexture" : {"index" : 1, "texCoord" : 0}, "metallicFactor" : 0, "roughnessFactor" : 1}, "emissiveFactor" : [0, 0, 0], "alphaMode" : "OPAQUE", "doubleSided" : false}, {"name" : "Material_2", "pbrMetallicRoughness" : {"baseColorFactor" : [1, 1, 1, 1], "baseColorTexture" : {"index" : 2, "texCoord" : 0}, "metallicFactor" : 0, "roughnessFactor" : 1}, "emissiveFactor" : [0, 0, 0], "alphaMode" : "OPAQUE", "doubleSided" : false}, {"name" : "Material_3", "pbrMetallicRoughness" : {"baseColorFactor" : [1, 1, 1, 1], "baseColorTexture" : {"index" : 3, "texCoord" : 0}, "metallicFactor" : 0, "roughnessFactor" : 1}, "emissiveFactor" : [0, 0, 0], "alphaMode" : "OPAQUE", "doubleSided" : false}], "meshes" : [{"primitives" : [{"attributes" : {"POSITION" : 1, "NORMAL" : 2, "TEXCOORD_0" : 3}, "indices" : 0, "material" : 0, "mode" : 4}, {"attributes" : {"POSITION" : 5, "NORMAL" : 6, "TEXCOORD_0" : 7}, "indices" : 4, "material" : 1, "mode" : 4}, {"attributes" : {"POSITION" : 9, "NORMAL" : 10, "TEXCOORD_0" : 11}, "indices" : 8, "material" : 2, "mode" : 4}, {"attributes" : {"POSITION" : 13, "NORMAL" : 14, "TEXCOORD_0" : 15}, "indices" : 12, "material" : 3, "mode" : 4}]}], "nodes" : [{"matrix" : [1, 0, 0, 0, 0, 1, 0, 0, 0, 0, 1, 0, 0.8134024739265442, 1.945170283317566, 0.254802942276001, 1], "mesh" : 0, "name" : "Mesh_0"}], "samplers" : [{"magFilter" : 9729, "minFilter" : 9987, "wrapS" : 10497, "wrapT" : 10497}, {"magFilter" : 9729, "minFilter" : 9987, "wrapS" : 10497, "wrapT" : 10497}, {"magFilter" : 9729, "minFilter" : 9987, "wrapS" : 10497, "wrapT" : 10497}, {"magFilter" : 9729, "minFilter" : 9987, "wrapS" : 10497, "wrapT" : 10497}], "scene" : 0, "scenes" : [{"nodes" : [0]}], "textures" : [{"sampler" : 0, "source" : 0, "name" : ""}, {"sampler" : 1, "source" : 1, "name" : ""}, {"sampler" : 2, "source" : 2, "name" : ""}, {"sampler" : 3, "source" : 3, "name" : ""}]}